<svg enable-background="new 3.5 3.5 18 18" viewBox="3.5 3.5 18 18" xmlns="http://www.w3.org/2000/svg"><g fill="#fff"><path d="m10.316 11.995c0-.995 2.189-1.284 2.189-3.624 0-1.402-.129-2.249-1.234-2.747 0-.348 1.951-.119 1.951-.77-.338 0-4.273 0-4.273 0s-4.326.107-4.326 3.77c0 3.664 3.782 3.238 3.782 3.238s0 .553 0 .93c0 .375.508.249.57 1.01-.256 0-5.255-.132-5.255 3.186s4.405 3.158 4.405 3.158 5.097.232 5.097-3.887c0-2.47-2.906-3.266-2.906-4.261m-3.692-3.159c-.4-1.471.127-2.895 1.179-3.18 1.05-.287 2.225.674 2.625 2.146s-.127 2.895-1.178 3.181c-1.05.285-2.226-.676-2.626-2.147m2.188 10.248c-1.764.12-3.264-.826-3.352-2.113-.087-1.286 1.272-2.427 3.036-2.545 1.764-.119 3.265.825 3.352 2.112.087 1.286-1.272 2.426-3.036 2.546"/><path d="m21.236 12.06v.88h-2.972v2.97h-.876v-2.97h-2.971v-.88h2.971v-2.97h.876v2.97z"/></g></svg>