<svg enable-background="new 0 0 18 18" viewBox="0 0 18 18" xmlns="http://www.w3.org/2000/svg"><path d="m9 15.9c-4.1 0-7.4-2.1-7.4-4.7s3.3-4.8 7.4-4.8 7.4 2.1 7.4 4.8-3.3 4.7-7.4 4.7z" fill="#fff"/><path d="m17.9 8.8c0-1.1-.9-2-2-2-.5 0-1 .2-1.4.6-1.3-.9-3.1-1.4-5.1-1.5l1.1-3.5 3 .7c0 .9.7 1.6 1.6 1.6s1.6-.7 1.6-1.6-.7-1.6-1.6-1.6c-.7 0-1.3.4-1.5 1l-3.2-.8c-.1 0-.3 0-.3.2l-1.3 4c-2.1 0-4 .6-5.4 1.5-.4-.3-.9-.5-1.4-.5-1.1 0-2 .9-2 2 0 .7.4 1.4 1 1.7v.6c0 2.9 3.6 5.3 8 5.3s8-2.4 8-5.3c0-.2 0-.4-.1-.6.6-.4 1-1 1-1.8zm-2.8-6.7c.6 0 1.1.5 1.1 1.1s-.5 1.1-1.1 1.1-1.1-.5-1.1-1.1.5-1.1 1.1-1.1zm-14.5 6.7c0-.8.6-1.4 1.4-1.4.3 0 .6.1.9.3-.8.7-1.4 1.4-1.7 2.3-.4-.3-.6-.7-.6-1.2zm8.4 7.1c-4.1 0-7.4-2.1-7.4-4.7s3.3-4.8 7.4-4.8 7.4 2.1 7.4 4.8-3.3 4.7-7.4 4.7zm7.7-5.9c-.3-.9-.9-1.6-1.7-2.3.3-.2.6-.3.9-.3.8 0 1.4.6 1.4 1.4.1.5-.2 1-.6 1.2zm0 0"/><path d="m7.5 10.2c0-.6-.6-1.2-1.2-1.2s-1.2.5-1.2 1.2c0 .6.5 1.2 1.2 1.2.6 0 1.2-.5 1.2-1.2zm0 0" fill="#e84a1e"/><path d="m11.7 9c-.6 0-1.2.5-1.2 1.2 0 .6.5 1.2 1.2 1.2.6 0 1.2-.5 1.2-1.2 0-.6-.5-1.2-1.2-1.2zm0 0" fill="#e84a1e"/><path d="m11.5 13.3c-.5.5-1.3.7-2.5.7-1.2 0-2-.2-2.5-.7-.1-.1-.3-.1-.4 0s-.1.3 0 .4c.6.6 1.5.9 2.8.9 1.3 0 2.3-.3 2.8-.9.1-.1.1-.3 0-.4 0-.1-.1-.1-.2 0zm0 0"/><g fill="#fff"><path d="m16.7 10c-.3-.9-.9-1.6-1.7-2.3.3-.2.6-.3.9-.3.8 0 1.4.6 1.4 1.4.1.5-.2 1-.6 1.2z"/><path d="m .6 8.8c0-.8.6-1.4 1.4-1.4.3 0 .6.1.9.3-.8.7-1.4 1.4-1.7 2.3-.4-.3-.6-.7-.6-1.2z"/><path d="m15.1 2.1c.6 0 1.1.5 1.1 1.1s-.5 1.1-1.1 1.1-1.1-.5-1.1-1.1.5-1.1 1.1-1.1z"/></g></svg>