<svg enable-background="new 0.155 -0.079 330 63" height="63" viewBox=".155 -.079 330 63" width="330" xmlns="http://www.w3.org/2000/svg"><g fill="#fff"><path d="m134.594 51.505h5.29c.971 0 1.649.197 2.035.592s.501.965.346 1.714c-.048.215-.119.421-.21.623-.09.2-.219.387-.383.553-.165.17-.369.319-.616.452-.248.131-.543.233-.888.308v.024c.329.05.6.142.813.272.215.132.379.292.493.481.116.188.183.397.204.627.02.232.006.466-.043.703-.083.387-.23.737-.444 1.047-.215.314-.489.582-.827.804-.337.223-.733.394-1.184.518-.453.123-.954.184-1.505.184h-4.969zm1.824 7.004h.494c.435 0 .762-.073.98-.223.217-.146.359-.385.424-.715.107-.532-.25-.8-1.073-.8h-.454zm1.085-5.105-.357 1.69h.469c.412 0 .708-.085.894-.248.185-.164.306-.377.364-.643.065-.296.018-.501-.142-.621-.161-.118-.417-.18-.771-.18z"/><path d="m142.696 54.218h2.983l-1.318 6.19h-2.985zm.567-2.713h2.984l-.395 1.899h-2.984z"/><path d="m146.1 56.043h-.801l.394-1.825h.801l.21-.998 3.206-1.036-.431 2.034h1.344l-.394 1.825h-1.345l-.395 1.898c-.059.24-.056.404.006.494.061.091.183.136.363.136.107 0 .222-.001.346-.006.123-.005.254-.026.394-.068l-.394 1.824c-.353.073-.708.139-1.061.19-.353.053-.679.081-.975.081-.287 0-.562-.027-.82-.081-.258-.052-.478-.145-.657-.271-.183-.129-.31-.303-.384-.529s-.074-.513 0-.857z"/><path d="m150.835 54.218h2.984l-1.32 6.19h-2.984zm.567-2.713h2.984l-.396 1.899h-2.984z"/><path d="m154.215 54.218h2.91l-.124.938h.025c.345-.445.707-.744 1.084-.895.378-.152.744-.228 1.097-.228.312 0 .59.041.832.121.244.084.44.213.592.389.152.178.25.409.297.696.044.29.025.638-.057 1.051l-.876 4.117h-2.984l.814-3.836c.107-.475-.024-.714-.396-.714-.165 0-.315.056-.451.16-.133.107-.227.284-.275.53l-.826 3.858h-2.984z"/><path d="m165.079 59.496h-.023c-.312.329-.654.545-1.023.645-.371.105-.729.156-1.073.156-.304 0-.605-.049-.899-.15-.296-.098-.549-.265-.759-.493-.209-.23-.354-.534-.437-.911-.083-.38-.061-.846.062-1.406.123-.575.298-1.072.523-1.492.226-.418.491-.763.796-1.03.303-.268.636-.464.993-.593.356-.125.729-.189 1.116-.189.37 0 .692.064.969.189.275.129.478.353.609.674h.024l.197-.681h2.813l-1.195 5.637c-.142.633-.346 1.147-.613 1.542-.267.394-.586.706-.961.937s-.799.387-1.277.47c-.477.082-.99.122-1.542.122-.609 0-1.107-.049-1.498-.148-.39-.099-.699-.24-.924-.426-.226-.185-.377-.406-.451-.667-.073-.257-.093-.545-.061-.855h2.934c-.041.147-.013.265.085.358.09.087.239.133.444.133.264 0 .476-.075.635-.228.161-.15.281-.423.364-.818zm-.665-.878c.181 0 .331-.034.45-.109.119-.073.216-.175.291-.3.074-.129.134-.278.178-.444.046-.17.089-.349.13-.539.033-.179.066-.357.099-.53.032-.172.042-.325.024-.462-.016-.136-.064-.244-.142-.324-.081-.085-.204-.124-.377-.124-.181 0-.33.05-.45.154-.119.102-.22.229-.302.382-.083.149-.148.32-.197.511-.049.189-.09.369-.123.542-.041.189-.072.361-.093.512-.019.151-.019.285 0 .395.021.113.071.196.149.254.077.056.198.082.363.082z"/><path d="m173.305 56.043h-.802l.394-1.825h.803l.21-.998 3.206-1.036-.432 2.034h1.343l-.394 1.825h-1.344l-.395 1.898c-.056.24-.054.404.006.494.062.091.184.136.363.136.108 0 .223-.001.347-.006.125-.005.255-.026.395-.068l-.395 1.824c-.353.073-.707.139-1.061.19-.352.053-.678.081-.973.081-.289 0-.563-.027-.82-.081-.259-.052-.479-.145-.66-.271-.182-.129-.31-.303-.382-.529-.075-.227-.075-.513 0-.857z"/><path d="m178.606 51.505h2.986l-.751 3.553h.024c.149-.165.295-.311.444-.438.149-.13.309-.235.481-.322.172-.086.359-.151.561-.196.201-.045.43-.066.684-.066.312 0 .589.041.832.121.242.083.439.212.591.389.153.178.25.409.298.696.043.289.025.638-.057 1.05l-.875 4.117h-2.984l.814-3.835c.106-.476-.024-.714-.396-.714-.164 0-.314.056-.451.159-.136.107-.227.285-.277.53l-.827 3.859h-2.984z"/><path d="m191.569 58.423c-.263.706-.717 1.245-1.363 1.616-.646.369-1.547.554-2.707.554-.453 0-.875-.055-1.263-.164-.39-.113-.719-.3-.981-.558-.261-.259-.444-.599-.544-1.023-.097-.422-.081-.946.052-1.57.115-.536.301-1.002.559-1.405.26-.403.579-.74.957-1.013.378-.271.806-.477 1.281-.616.479-.14.996-.209 1.554-.209 1.178 0 1.986.289 2.431.869.446.58.548 1.426.309 2.535l-.085.418h-4.268l-.037.185c-.083.363-.075.623.025.783.099.158.295.24.592.24.164 0 .33-.052.492-.155.166-.101.292-.265.383-.484h2.615zm-2.208-1.875.013-.088c.065-.294.046-.518-.061-.669-.107-.153-.282-.229-.518-.229-.238 0-.448.075-.629.229-.18.151-.303.375-.368.669l-.014.088z"/><path d="m197.229 51.505h2.985l-.752 3.553h.024c.15-.165.297-.311.445-.438.148-.13.308-.235.48-.322.173-.086.359-.151.561-.196.203-.045.429-.066.684-.066.313 0 .589.041.833.121.242.083.438.212.591.389.153.176.251.409.297.696.045.289.026.638-.055 1.05l-.878 4.117h-2.984l.814-3.835c.107-.476-.025-.714-.396-.714-.164 0-.314.056-.45.159-.135.107-.227.285-.277.53l-.826 3.859h-2.985z"/><path d="m207.466 55.909c.033-.159.015-.278-.055-.365-.069-.087-.212-.129-.425-.129-.189 0-.342.041-.455.123-.116.083-.21.255-.283.519h-2.468c.116-.421.295-.763.538-1.024.243-.263.528-.468.856-.617.328-.146.683-.248 1.066-.302.382-.052.773-.079 1.166-.079.592 0 1.079.047 1.462.14.381.096.678.235.882.42.204.186.33.413.375.684.045.272.028.589-.044.95l-.887 4.18h-2.613l.049-.59c-.282.286-.584.49-.914.605-.329.114-.665.172-1.01.172-.314 0-.592-.043-.839-.122-.247-.085-.449-.205-.604-.367-.155-.159-.263-.357-.32-.591-.058-.233-.053-.503.014-.808.163-.764.583-1.315 1.263-1.65.677-.339 1.597-.508 2.755-.508h.357zm-.383 1.798h-.406c-.396 0-.672.076-.833.229-.16.151-.257.313-.29.486-.041.195-.017.353.076.469.088.114.25.173.48.173.262 0 .458-.077.585-.229.126-.153.218-.355.277-.608z"/><path d="m210.969 54.218h2.91l-.124.938h.025c.348-.445.706-.744 1.084-.895.379-.152.745-.228 1.098-.228.314 0 .588.041.831.121.244.084.441.213.595.389.151.178.25.409.296.696.044.29.025.638-.056 1.051l-.876 4.117h-2.986l.814-3.836c.106-.475-.024-.714-.392-.714-.168 0-.316.056-.452.16-.137.107-.229.284-.277.53l-.828 3.858h-2.982z"/><path d="m221.673 59.694c-.337.352-.686.591-1.047.713-.364.124-.717.185-1.062.185-.379 0-.708-.072-.99-.216-.283-.144-.512-.356-.68-.642-.17-.283-.271-.633-.309-1.049-.038-.414.001-.897.116-1.447.123-.584.297-1.079.524-1.486.226-.405.482-.737.771-.994.285-.252.595-.438.924-.553.328-.114.662-.173 1-.173.345 0 .663.055.953.166.292.111.534.308.722.586l.691-3.279h2.985l-1.887 8.902h-2.812zm.382-2.382c.033-.132.058-.243.075-.34.016-.095.029-.178.043-.247.014-.07.022-.134.03-.19.01-.058.013-.121.013-.186 0-.376-.172-.566-.518-.566-.313 0-.535.133-.672.396-.135.263-.257.641-.364 1.134-.041.214-.074.415-.098.598-.024.187-.026.347-.006.483s.067.241.141.323c.075.084.193.123.358.123.164 0 .294-.032.386-.098.096-.066.177-.145.242-.233.114-.173.237-.571.37-1.197z"/><path d="m230.058 56.043h-.8l.394-1.825h.802l.208-.998 3.206-1.036-.431 2.034h1.345l-.394 1.825h-1.347l-.394 1.898c-.056.24-.055.404.008.494.061.091.181.136.363.136.105 0 .22-.001.346-.006.123-.005.255-.026.395-.068l-.395 1.824c-.354.073-.706.139-1.06.19-.354.053-.681.081-.975.081-.288 0-.562-.027-.82-.081-.259-.052-.48-.145-.659-.271-.182-.129-.31-.303-.383-.529s-.073-.513 0-.857z"/><path d="m235.36 51.505h2.984l-.749 3.553h.023c.147-.165.295-.311.444-.438.149-.13.308-.235.482-.322.171-.086.359-.151.56-.196s.43-.066.683-.066c.314 0 .592.041.834.121.243.083.439.212.591.389.152.178.252.409.297.696.044.289.027.638-.056 1.05l-.878 4.117h-2.982l.813-3.835c.107-.476-.025-.714-.396-.714-.164 0-.316.056-.45.159-.136.107-.227.285-.278.53l-.825 3.859h-2.986z"/><path d="m245.599 55.909c.032-.159.015-.278-.058-.365-.068-.087-.21-.129-.426-.129-.186 0-.339.041-.453.123-.116.083-.211.255-.284.519h-2.466c.117-.421.295-.763.537-1.024.243-.263.528-.468.856-.617.328-.146.684-.248 1.065-.302.382-.052.772-.079 1.166-.079.593 0 1.079.047 1.461.14.382.096.677.235.883.42.202.186.331.413.377.684.046.272.029.589-.044.95l-.888 4.18h-2.615l.05-.59c-.281.286-.582.49-.91.605-.331.114-.667.172-1.013.172-.314 0-.591-.043-.839-.122-.246-.085-.446-.205-.604-.367-.155-.159-.265-.357-.319-.591-.058-.233-.055-.503.013-.808.165-.764.583-1.315 1.264-1.65.678-.339 1.597-.508 2.755-.508h.358zm-.384 1.798h-.406c-.396 0-.672.076-.832.229-.16.151-.258.313-.291.486-.041.195-.016.353.076.469.089.114.249.173.481.173.262 0 .455-.077.584-.229.126-.153.219-.355.277-.608z"/><path d="m249.124 56.043h-.802l.396-1.825h.801l.209-.998 3.207-1.036-.432 2.034h1.345l-.395 1.825h-1.344l-.395 1.898c-.059.24-.057.404.006.494.062.091.183.136.363.136.106 0 .222-.001.346-.006.123-.005.255-.026.395-.068l-.395 1.824c-.352.073-.705.139-1.059.19-.353.053-.68.081-.976.081-.286 0-.56-.027-.82-.081-.258-.052-.479-.145-.657-.271-.182-.129-.311-.303-.383-.529-.075-.227-.075-.513 0-.857z"/><path d="m257.535 56.043h-.664l.394-1.825h.665l.125-.616c.072-.353.204-.667.396-.938.186-.27.414-.497.678-.68.262-.182.556-.316.883-.413.322-.094.662-.142 1.016-.142.286 0 .577.015.871.042.292.03.543.073.757.131l-.369 1.752c-.108-.008-.217-.014-.32-.018-.108-.003-.214-.007-.32-.007-.361 0-.58.178-.654.53l-.073.355h1.048l-.396 1.827h-1.047l-.925 4.364h-2.985z"/><path d="m268.029 58.423c-.262.706-.718 1.245-1.361 1.616-.646.369-1.549.554-2.706.554-.453 0-.876-.055-1.267-.164-.388-.113-.715-.3-.978-.558-.263-.259-.444-.599-.545-1.023-.1-.422-.082-.946.05-1.57.115-.536.304-1.002.561-1.405.258-.403.579-.74.955-1.013.379-.271.806-.477 1.282-.616.479-.14.994-.209 1.554-.209 1.178 0 1.986.289 2.432.869.443.58.545 1.426.308 2.535l-.086.418h-4.266l-.039.185c-.082.363-.072.623.025.783.099.158.296.24.592.24.164 0 .328-.052.49-.155.167-.101.293-.265.384-.484h2.615zm-2.206-1.875.013-.088c.065-.294.045-.518-.062-.669-.106-.153-.281-.229-.517-.229-.239 0-.448.075-.63.229-.18.151-.305.375-.369.669l-.014.088z"/><path d="m275.305 58.423c-.263.706-.718 1.245-1.361 1.616-.646.369-1.548.554-2.707.554-.452 0-.876-.055-1.264-.164-.392-.113-.718-.3-.98-.558-.264-.259-.444-.599-.545-1.023-.099-.422-.082-.946.051-1.57.116-.536.302-1.002.561-1.405.258-.403.579-.74.955-1.013.378-.271.806-.477 1.282-.616.478-.14.995-.209 1.553-.209 1.178 0 1.985.289 2.431.869.444.58.548 1.426.309 2.535l-.087.418h-4.265l-.037.185c-.083.363-.075.623.024.783.099.158.295.24.59.24.165 0 .33-.052.493-.155.165-.101.292-.265.383-.484h2.614zm-2.206-1.875.012-.088c.064-.294.047-.518-.061-.669-.108-.153-.28-.229-.519-.229-.236 0-.449.075-.628.229-.18.151-.303.375-.369.669l-.016.088z"/><path d="m279.757 59.694c-.336.352-.685.591-1.049.713-.36.124-.714.185-1.059.185-.379 0-.709-.072-.996-.216-.279-.144-.507-.356-.676-.642-.167-.283-.272-.633-.308-1.049-.038-.414.001-.897.116-1.447.123-.584.299-1.079.525-1.486.225-.405.482-.737.769-.994.287-.252.598-.438.928-.553.327-.114.661-.173.995-.173.349 0 .667.055.958.166s.532.308.721.586l.691-3.279h2.983l-1.886 8.902h-2.812zm.382-2.382c.034-.132.058-.243.076-.34.018-.095.031-.178.044-.247.012-.07.021-.134.029-.19.01-.058.014-.121.014-.186 0-.376-.175-.566-.518-.566-.313 0-.538.133-.671.396-.14.263-.259.641-.368 1.134-.04.214-.072.415-.096.598-.025.187-.027.347-.007.483s.066.241.143.323c.071.084.19.123.359.123.161 0 .291-.032.386-.098s.176-.145.241-.233c.115-.173.238-.571.368-1.197z"/><path d="m287.676 56.13c.057-.287.049-.481-.024-.58-.083-.092-.22-.135-.418-.135-.248 0-.424.04-.53.122-.109.083-.179.192-.211.333-.017.067-.019.123-.007.179.012.055.046.101.1.142.053.041.138.08.252.112.115.032.267.06.454.083.584.084 1.062.179 1.431.286.372.105.652.237.854.396.194.153.315.34.361.554s.039.474-.017.776c-.074.338-.201.641-.383.913-.181.271-.425.5-.734.689-.31.188-.688.334-1.14.438-.452.103-.986.153-1.605.153-.502 0-.944-.041-1.331-.115-.387-.08-.701-.206-.944-.383-.243-.179-.414-.409-.506-.699-.094-.286-.101-.635-.019-1.046h2.688c-.05.336-.033.562.05.679.084.121.234.186.455.186.24 0 .41-.053.515-.156.102-.101.169-.229.202-.375.018-.09.008-.179-.031-.265-.037-.087-.146-.151-.323-.19-.052-.007-.104-.018-.162-.032-.058-.013-.131-.028-.224-.048-.086-.022-.206-.047-.348-.076-.146-.029-.323-.064-.538-.105-.359-.073-.666-.16-.912-.258-.247-.098-.44-.218-.58-.359-.141-.139-.227-.309-.258-.511-.033-.201-.021-.448.034-.733.058-.279.175-.546.349-.802.172-.255.404-.475.697-.659.291-.185.646-.334 1.059-.444.416-.111.899-.167 1.451-.167.476 0 .905.033 1.287.098s.699.18.954.341c.255.159.438.377.542.647.11.272.125.607.05 1.012z"/><path d="m295.679 51.505h3.525l-1.884 8.902h-3.528z"/><path d="m301.067 53.896h-2.194l.504-2.392h7.918l-.506 2.392h-2.194l-1.381 6.511h-3.529z"/><path d="m122.611 17.579c.705-2.054 1.042-4.14 1.011-6.235-.03-2.092-.674-4.177-1.921-6.263-1.093-1.707-2.74-2.983-4.918-3.832-2.178-.858-4.613-1.277-7.299-1.247-2.689.031-5.347.521-7.976 1.471-2.043.778-3.926 1.962-5.643 3.557-1.708 1.594-3.058 3.577-4.049 5.958-.338.868-.562 2.013-.685 3.414-.133 1.389-.205 2.647-.215 3.781-.01 1.133-.019 1.727-.01 1.778-1.096.755-2.341 1.686-3.753 2.779-1.41 1.093-2.792 2.413-4.151 3.936-1.43 1.685-2.647 3.361-3.639 5.004-.993 1.667-1.607 2.936-1.841 3.822-.123.359-.02 1.351.297 2.998.317 1.631 1.157 3.514 2.536 5.65 1.379 2.135 3.589 4.107 6.624 5.913.03.031.112-.029.235-.173.133-.133.205-.205.215-.224-.05-.029-.42-.429-1.083-1.206-.665-.766-1.309-1.769-1.922-2.983-.624-1.228-.878-2.515-.787-3.863.122-1.851 1.296-3.546 3.525-5.088 2.239-1.555 6.063-2.902 11.472-4.038 1.534-.39 2.864-.98 3.998-1.789 1.135-.795 1.739-1.246 1.79-1.348-.419 4.321.347 8.269 2.28 11.813 1.646 2.993 3.783 5.684 6.42 8.062l25.641-25.629c-1.279 1.032-2.823 2.237-4.631 3.617-2.147 1.625-4.355 3.158-6.616 4.61-2.259 1.442-4.263 2.474-6.022 3.097-1.758.623-2.955.509-3.578-.337-.581-1.062-.613-2.609-.071-4.63.531-2.033 1.29-4.128 2.261-6.305.961-1.983 1.799-4.007 2.505-6.07zm-22.309 1.502c.408.438.645.726.715.869.031.255-.112.859-.429 1.788-.316.94-.941 1.646-1.871 2.125-1.217.451-2.352.541-3.406.266-1.053-.266-1.903-.612-2.555-1.053-.645-.438-.983-.673-1.003-.725l10.213-11.139.042.359c-.032.08-.236.644-.624 1.695-.397 1.043-.787 2.095-1.175 3.158-.379 1.053-.594 1.656-.624 1.798.075.123.319.411.717.859zm-72.169-3.167h-7.753l-4.876 22.984h-12.457l4.878-22.984h-7.751l1.784-8.447h27.958zm23.254 8.445-3.091 14.539h-10.541l2.874-13.539c.377-1.683-.085-2.526-1.392-2.526-.582 0-1.11.189-1.59.568-.479.376-.806 1.003-.979 1.871l-2.918 13.626h-10.542l6.667-31.431h10.538l-2.657 12.536h.088c.522-.58 1.046-1.094 1.567-1.544.522-.45 1.087-.827 1.698-1.132s1.27-.537 1.981-.696c.71-.16 1.517-.24 2.416-.24 1.104 0 2.086.146 2.942.437.855.288 1.552.746 2.09 1.369.538.625.885 1.444 1.043 2.46.162 1.015.095 2.249-.194 3.702zm25.258 4.047-.304 1.481h-15.07l-.13.651c-.289 1.277-.262 2.198.087 2.765.35.563 1.046.849 2.089.849.581 0 1.16-.181 1.744-.544.58-.361 1.029-.935 1.349-1.718h9.235c-.931 2.494-2.536 4.397-4.814 5.701-2.28 1.306-5.465 1.957-9.56 1.957-1.597 0-3.084-.193-4.462-.583-1.379-.396-2.533-1.044-3.461-1.96-.931-.916-1.567-2.118-1.917-3.614-.349-1.493-.292-3.343.175-5.549.406-1.885 1.067-3.541 1.982-4.963.915-1.42 2.038-2.612 3.375-3.569 1.333-.957 2.847-1.682 4.53-2.176 1.682-.495 3.51-.742 5.487-.742 4.15 0 7.011 1.022 8.578 3.068 1.566 2.046 1.93 5.028 1.087 8.946zm-8.972-5.809c-.375-.539-.986-.808-1.828-.808-.844 0-1.583.269-2.219.808-.643.538-1.076 1.325-1.308 2.37l-.043.304h5.574l.045-.304c.23-1.045.157-1.833-.221-2.37zm101.728-7.162c-.205.898-.494 1.739-.872 2.525-.377.784-.871 1.494-1.479 2.133-.61.637-1.364 1.195-2.266 1.676-.899.479-1.973.864-3.223 1.153v.087c1.481.145 2.578.544 3.29 1.197.711.65 1.094 1.586 1.154 2.809.027.666 0 1.44-.088 2.327-.087.886-.174 1.836-.26 2.851-.089 1.016-.161 2.089-.219 3.22-.058 1.134-.027 2.294.088 3.485h-12.195c-.058-.582-.08-1.254-.065-2.026.013-.769.043-1.554.087-2.351.043-.798.101-1.604.175-2.417.07-.811.122-1.552.151-2.219.057-.783-.103-1.342-.481-1.677-.377-.333-1.074-.5-2.089-.5h-1.436l-2.396 11.188h-12.194l6.661-31.431h18.599c1.684 0 3.163.141 4.441.414 1.279.276 2.307.724 3.092 1.351.783.624 1.307 1.442 1.567 2.459.263 1.019.247 2.265-.042 3.746zm-13-.304c-.652-.35-1.588-.523-2.81-.523h-1.129l-1.309 5.963h1.043c1.193 0 2.237-.232 3.138-.697.899-.463 1.461-1.29 1.698-2.48.234-1.161.022-1.917-.631-2.263zm36.255 13.275-.305 1.481h-15.066l-.132.651c-.292 1.277-.261 2.198.087 2.765.347.563 1.045.849 2.091.849.58 0 1.159-.181 1.74-.544.581-.361 1.031-.935 1.352-1.718h9.231c-.931 2.494-2.534 4.397-4.811 5.701-2.279 1.307-5.464 1.957-9.559 1.957-1.6 0-3.087-.193-4.464-.583-1.379-.396-2.536-1.044-3.464-1.96s-1.568-2.118-1.914-3.614c-.351-1.493-.292-3.343.174-5.549.406-1.885 1.067-3.541 1.979-4.963.914-1.42 2.039-2.612 3.379-3.569 1.333-.957 2.843-1.682 4.527-2.176 1.683-.495 3.512-.742 5.484-.742 4.152 0 7.015 1.022 8.582 3.068 1.567 2.045 1.931 5.028 1.089 8.946zm-8.97-5.809c-.379-.539-.984-.808-1.831-.808-.842 0-1.583.269-2.22.808-.64.538-1.076 1.325-1.308 2.37l-.042.304h5.575l.042-.304c.233-1.045.162-1.833-.216-2.37zm33.75 14.341c-.497 2.236-1.211 4.048-2.155 5.441-.944 1.395-2.075 2.496-3.396 3.31-1.323.811-2.824 1.363-4.508 1.656-1.684.285-3.497.432-5.445.432-2.15 0-3.913-.174-5.292-.521-1.377-.348-2.467-.85-3.263-1.504-.803-.65-1.33-1.434-1.591-2.35-.261-.913-.335-1.92-.217-3.027h10.363c-.146.525-.042.947.306 1.267.318.316.842.479 1.566.479.929 0 1.675-.271 2.245-.805.563-.536.993-1.505 1.284-2.898l.611-2.74h-.09c-1.104 1.162-2.308 1.923-3.614 2.288-1.306.361-2.57.542-3.79.542-1.075 0-2.133-.171-3.176-.52-1.044-.349-1.938-.93-2.68-1.743-.741-.812-1.258-1.887-1.544-3.22-.292-1.335-.22-2.99.216-4.964.434-2.029 1.052-3.785 1.851-5.267.798-1.479 1.733-2.69 2.809-3.634 1.074-.944 2.242-1.638 3.506-2.087 1.262-.452 2.575-.677 3.94-.677 1.307 0 2.446.226 3.418.677.971.448 1.689 1.237 2.154 2.37h.088l.699-2.395h9.928zm-7.709-12.776c-.056-.479-.224-.863-.497-1.153-.28-.292-.722-.435-1.332-.435-.637 0-1.167.18-1.587.544-.423.361-.779.811-1.067 1.349-.294.536-.524 1.139-.701 1.808-.173.665-.317 1.305-.435 1.914-.145.667-.252 1.271-.325 1.807-.072.537-.072 1.001 0 1.394.073.39.248.687.523.892.275.203.704.303 1.285.303.636 0 1.167-.128 1.589-.392.419-.262.764-.615 1.023-1.065.263-.452.471-.971.631-1.568.161-.595.312-1.228.458-1.895.114-.636.231-1.262.35-1.872.116-.605.143-1.152.085-1.631zm24.738-9.991h-10.545l1.398-6.704h10.54zm-5.273 24.727h-10.537l4.657-21.854h10.54zm27.045-15.106h-8.971c.203-1.015.174-1.697-.088-2.045-.288-.319-.785-.48-1.479-.48-.872 0-1.496.145-1.874.437-.376.288-.623.681-.737 1.175-.06.231-.066.444-.022.633.044.188.157.354.348.497.189.146.486.278.89.396.41.115.948.214 1.614.303 2.06.29 3.746.625 5.05 1.002 1.309.376 2.311.839 3.004 1.388.701.556 1.123 1.205 1.285 1.962.159.754.141 1.67-.064 2.741-.259 1.191-.712 2.266-1.35 3.222s-1.502 1.77-2.591 2.439c-1.088.668-2.433 1.18-4.025 1.546-1.599.361-3.484.542-5.661.542-1.772 0-3.339-.136-4.708-.413-1.363-.276-2.472-.725-3.328-1.349-.854-.623-1.455-1.444-1.787-2.462-.335-1.013-.355-2.247-.066-3.698h9.497c-.175 1.19-.117 1.987.173 2.394.29.436.827.651 1.612.651.842 0 1.441-.181 1.807-.544.361-.36.602-.805.716-1.326.058-.319.02-.632-.109-.937-.128-.306-.514-.53-1.152-.674-.176-.028-.361-.064-.567-.108-.202-.044-.463-.1-.782-.174-.319-.073-.735-.158-1.241-.262-.508-.102-1.141-.227-1.893-.371-1.279-.26-2.356-.565-3.226-.915-.869-.348-1.555-.768-2.044-1.26-.494-.493-.799-1.094-.915-1.807-.118-.71-.073-1.574.131-2.59.2-.987.608-1.929 1.219-2.83.608-.9 1.429-1.675 2.459-2.329 1.03-.652 2.282-1.175 3.746-1.566 1.466-.392 3.172-.588 5.117-.588 1.682 0 3.2.118 4.551.348 1.35.233 2.474.631 3.376 1.196.899.568 1.536 1.33 1.917 2.286.37.96.429 2.15.168 3.57zm19.814-6.748-1.394 6.442h-4.745l-1.395 6.703c-.205.844-.197 1.423.022 1.742.217.32.646.48 1.284.48.375 0 .783-.006 1.218-.02.437-.016.899-.096 1.392-.242l-1.392 6.444c-1.25.261-2.497.486-3.748.674-1.245.189-2.393.281-3.436.281-1.02 0-1.982-.092-2.897-.281-.913-.188-1.69-.508-2.328-.957-.645-.451-1.088-1.074-1.35-1.872-.263-.799-.263-1.806 0-3.027l2.089-9.925h-2.832l1.396-6.441h2.829l.742-3.526 11.319-3.656-1.522 7.182h4.747v-.001zm22.341 11.362-.305 1.481h-15.068l-.132.651c-.29 1.277-.262 2.198.089 2.765.347.563 1.043.849 2.089.849.579 0 1.16-.181 1.743-.544.582-.361 1.032-.935 1.351-1.718h9.229c-.931 2.494-2.532 4.397-4.812 5.701-2.279 1.307-5.463 1.957-9.558 1.957-1.599 0-3.088-.193-4.464-.583-1.377-.396-2.533-1.044-3.461-1.96-.93-.916-1.567-2.118-1.918-3.614-.35-1.493-.289-3.343.174-5.549.407-1.885 1.069-3.541 1.983-4.963.915-1.42 2.038-2.612 3.377-3.569 1.331-.957 2.841-1.682 4.524-2.176 1.684-.495 3.514-.742 5.491-.742 4.148 0 7.006 1.022 8.574 3.068 1.573 2.046 1.935 5.028 1.094 8.946zm-8.971-5.809c-.377-.539-.987-.808-1.828-.808-.845 0-1.583.269-2.223.808-.64.538-1.072 1.325-1.306 2.37l-.046.304h5.574l.048-.304c.231-1.045.158-1.833-.219-2.37zm28.22 2.719c-.584-.146-1.209-.285-1.873-.415-.668-.13-1.468-.195-2.398-.195-1.012 0-1.774.282-2.285.847-.507.567-.833 1.2-.979 1.896l-2.438 11.45h-10.543l4.663-21.854h10.279l-.264 2.395c.987-.987 1.879-1.676 2.681-2.068.798-.392 1.532-.588 2.197-.588.438 0 .878.038 1.33.109.451.073.891.241 1.328.501z"/><path d="m324.808 7.761c2.994 0 5.319 2.324 5.319 5.223 0 2.963-2.325 5.256-5.353 5.256-2.996 0-5.388-2.292-5.388-5.256 0-2.899 2.392-5.223 5.388-5.223zm-.066 1.051c-2.297 0-4.016 1.88-4.016 4.173 0 2.325 1.719 4.173 4.081 4.173 2.293.032 3.983-1.848 3.983-4.173 0-2.294-1.69-4.173-4.017-4.173zm-.797 6.88h-1.212v-5.192c.479-.096 1.147-.191 2.009-.191.987 0 1.434.16 1.816.414.286.223.51.638.51 1.115 0 .606-.446 1.051-1.084 1.243v.064c.512.16.796.574.957 1.274.159.797.255 1.115.382 1.275h-1.308c-.159-.192-.255-.637-.415-1.243-.095-.574-.411-.828-1.083-.828h-.572zm.034-2.93h.571c.671 0 1.211-.222 1.211-.765 0-.477-.351-.796-1.114-.796-.316 0-.544.032-.668.065z"/></g></svg>