<svg enable-background="new 0 0 40 40" viewBox="0 0 40 40" xmlns="http://www.w3.org/2000/svg"><path d="m40.03 36.39-9.582-9.921s0-.025.008-.036c1.77-2.706 2.762-5.933 2.762-9.436 0-9.41-7.445-17.04-16.622-17.04-9.183 0-16.624 7.629-16.624 17.04 0 9.412 7.441 17.03 16.624 17.03 3.913 0 7.548-1.414 10.388-3.729.018-.014.031.006.031.006l9.461 9.724c3.776.226 3.554-3.643 3.554-3.643zm-23.374-5.933c-7.239 0-13.11-6.02-13.11-13.436 0-7.422 5.869-13.436 13.11-13.436 7.237 0 13.1 6.01 13.1 13.436 0 7.34-5.769 13.436-13.1 13.436z" fill="#050606" stroke="#050606" stroke-miterlimit="10" stroke-width=".25"/></svg>