<svg enable-background="new 11 11 18 18" viewBox="11 11 18 18" xmlns="http://www.w3.org/2000/svg"><path d="m28.391 26.868-4.01-4.157s0-.011.004-.014c.74-1.135 1.157-2.487 1.157-3.956 0-3.942-3.12-7.139-6.964-7.139-3.849 0-6.966 3.197-6.966 7.139 0 3.945 3.118 7.138 6.966 7.138 1.64 0 3.161-.591 4.352-1.562.007-.005.013.004.013.004l3.964 4.072c1.583.097 1.488-1.525 1.488-1.525zm-9.791-2.485c-3.034 0-5.494-2.523-5.494-5.631 0-3.11 2.46-5.629 5.494-5.629 3.03 0 5.489 2.52 5.489 5.629 0 3.076-2.417 5.631-5.489 5.631z" fill="#fff" stroke="#fff" stroke-miterlimit="10"/></svg>