<svg enable-background="new 3.5 3.5 18 18" viewBox="3.5 3.5 18 18" xmlns="http://www.w3.org/2000/svg"><path d="m21.328 7.02c-.648.289-1.349.483-2.081.571.748-.448 1.322-1.158 1.592-2-.699.416-1.474.717-2.3.879-.66-.703-1.603-1.143-2.644-1.143-2 0-3.623 1.621-3.623 3.622 0 .283.032.56.093.825-3.01-.151-5.677-1.592-7.465-3.784-.312.534-.49 1.157-.49 1.82 0 1.257.639 2.365 1.611 3.02-.595-.019-1.153-.182-1.641-.453v.046c0 1.755 1.248 3.219 2.905 3.55-.304.084-.624.128-.954.128-.234 0-.46-.022-.683-.064.461 1.438 1.799 2.486 3.384 2.516-1.239.971-2.801 1.55-4.499 1.55-.292 0-.581-.017-.864-.05 1.603 1.028 3.506 1.628 5.553 1.628 6.662 0 10.306-5.52 10.306-10.306 0-.158-.003-.313-.01-.469.711-.511 1.325-1.149 1.81-1.877" fill="#fff"/></svg>