<svg enable-background="new 0 0 42 34" viewBox="0 0 42 34" xmlns="http://www.w3.org/2000/svg"><path d="m30.838 11.94c.48-1.395.709-2.812.688-4.234-.021-1.423-.457-2.839-1.304-4.255-.744-1.16-1.86-2.027-3.34-2.603-1.479-.583-3.131-.867-4.955-.847-1.826.021-3.631.354-5.415 1-1.388.528-2.665 1.333-3.831 2.415-1.159 1.083-2.076 2.43-2.749 4.047-.229.59-.382 1.368-.466 2.318-.09.944-.138 1.798-.146 2.568-.007.771-.014 1.173-.007 1.208-.742.514-1.589 1.146-2.547 1.888s-1.895 1.638-2.818 2.673c-.972 1.145-1.798 2.283-2.471 3.401-.673 1.131-1.089 1.992-1.25 2.596-.083.242-.013.915.202 2.033.215 1.11.785 2.387 1.721 3.838.938 1.451 2.437 2.79 4.498 4.02.021.021.077-.02.16-.118.09-.09.139-.138.146-.152-.035-.021-.285-.291-.736-.819-.45-.521-.888-1.2-1.304-2.026-.424-.832-.597-1.707-.535-2.624.083-1.256.881-2.408 2.395-3.456 1.52-1.055 4.116-1.972 7.788-2.743 1.042-.263 1.944-.665 2.714-1.213.771-.541 1.181-.847 1.215-.916-.284 2.937.236 5.615 1.549 8.02 1.117 2.034 2.566 3.859 4.358 5.477l17.408-17.409c-.867.701-1.916 1.52-3.144 2.458-1.459 1.104-2.957 2.145-4.492 3.13-1.533.979-2.894 1.68-4.088 2.104-1.194.423-2.01.348-2.43-.229-.396-.723-.417-1.771-.049-3.145.361-1.382.875-2.805 1.534-4.283.653-1.348 1.222-2.721 1.701-4.124m-15.15 1.02c.277.299.437.492.486.59.021.173-.076.583-.292 1.214-.215.639-.639 1.118-1.271 1.443-.826.306-1.596.368-2.311.181-.715-.181-1.291-.417-1.735-.715-.438-.298-.667-.458-.681-.493l6.934-7.565.028.243c-.021.055-.159.437-.424 1.152-.271.708-.535 1.422-.798 2.145-.256.715-.402 1.124-.423 1.222.05.084.216.278.487.583" fill="#010202"/></svg>