<svg enable-background="new 10.5 8.5 21 17" height="17" viewBox="10.5 8.5 21 17" width="21" xmlns="http://www.w3.org/2000/svg"><path d="m25.799 14.529c.233-.68.345-1.371.334-2.064-.01-.694-.223-1.385-.636-2.076-.363-.566-.907-.989-1.628-1.269-.722-.284-1.527-.423-2.417-.413-.891.01-1.771.172-2.641.488-.677.257-1.3.65-1.869 1.178-.565.528-1.013 1.185-1.341 1.973-.111.288-.187.667-.228 1.131-.044.461-.067.877-.071 1.253-.003.376-.006.572-.003.589-.362.25-.775.559-1.242.921s-.924.799-1.375 1.303c-.474.559-.877 1.114-1.205 1.659-.328.552-.531.972-.61 1.266-.04.118-.006.446.098.991.105.542.383 1.165.839 1.872.458.708 1.188 1.361 2.194 1.961.01.01.038-.011.078-.059.043-.044.067-.067.071-.074-.017-.01-.139-.143-.359-.398-.219-.255-.433-.586-.636-.988-.207-.405-.291-.832-.261-1.281.041-.611.43-1.174 1.168-1.685.741-.514 2.007-.962 3.798-1.337.508-.129.948-.325 1.323-.592.376-.265.576-.414.593-.447-.139 1.433.115 2.738.755 3.914.545.991 1.25 1.881 2.125 2.67l8.49-8.49c-.423.342-.935.741-1.533 1.198-.712.539-1.442 1.046-2.192 1.527-.747.478-1.41.819-1.992 1.025-.583.206-.979.17-1.186-.111-.193-.352-.204-.864-.023-1.533.175-.674.427-1.368.748-2.089.322-.659.599-1.329.834-2.013zm-7.387.497c.135.146.213.24.237.288.011.084-.037.284-.142.592-.105.312-.312.545-.621.704-.402.149-.778.18-1.127.088-.349-.088-.63-.204-.847-.349-.213-.146-.325-.223-.332-.24l3.381-3.69.014.119c-.011.026-.078.213-.207.562-.132.346-.261.693-.389 1.046-.125.349-.196.548-.206.596.026.041.106.136.239.284z" fill="#fff"/></svg>